<svg xmlns="http://www.w3.org/2000/svg" width="1856.972" height="1794.78" viewBox="0 0 1856.972 1794.78">
  <defs>
    <style>
      .cls-1 {
        
        fill-rule: evenodd;
      }
    </style>
  </defs>
  <path fill="#eaeaea" id="Color_Fill_1" data-name="Color Fill 1" class="cls-1" d="M2062,119c130.8-.568,153.49,91.584,197,177q130.98,256.974,262,514,13.995,27.5,28,55l21,15c23.36,18.315,86.09,73.942,76,121q-6,15.5-12,31c11.42,14.6,13.22,34.44,17,57,14.81,88.43-72.87,149.87-114,191q-216.48,215.985-433,432l-120,120c-25.14,25.15-48.05,54.9-83,70-82.43,35.62-157.53-18.24-214-47-12.72-6.48-25.77-18.28-42-20-12.73,6.49-18.09,20.98-33,24-15.22,3.08-20.45-8.17-35-5-11.49,2.5-21.98,15.47-38,12-19-4.11-29.62-21.66-47-27-16.42-5.04-41.21,4.35-50-8-14.05-19.75-6.48-56.04-18-79h-4c-19.85,20.39-72.48,21.19-59-29,2.95-10.97,14.34-15.55,21-23-0.33-.67-0.67-1.33-1-2q-174.48-88.995-349-178c-50.144-25.66-117.4-46.63-147-93-59.47,1.42-48.4-22.48-41-67q1.5-28.995,3-58c-18.189-11.07-38.993-23.79-47-45-17.9-47.42,24.461-163.43,43-187,12.386-15.75,41.211-25.05,60-34q39.5-247.975,79-496c15.714-78.665,14.628-169.74,56-222,33.59-42.434,86.55-48.158,151-61,21.16-4.216,54.29-1.346,71-12,2.85-2.655,9.45-9.641,11-13l-6-1c-0.67,2-1.33,4-2,6h-1c-0.33-1.333-.67-2.667-1-4v-1c6.36-5.668,34.14-31.435,40-33h16c-0.33-1-.67-2-1-3,8.99,0.438,14.08,5.9,15-5l-6,5v-3l3-2c5.03-5.9,18.23-6.631,26-5,0.3-14.293,44.29-26.5,60-18-0.33.667-.67,1.333-1,2h-5v1l37,1c1.44-3.217,10.77-7.29,20-5,36.96,9.169,68.21,21.562,104,30Zm-624,57c-0.33.667-.67,1.333-1,2,5.87,0.1,8.07.312,11-2h-10Zm-20,4c-0.67.333-1.33,0.667-2,1v1l8-2h-6Zm97,2,3,2C1516.2,181.958,1517.98,183.293,1515,182Zm-92,6c0.67,0.333,1.33.667,2,1C1424.33,188.667,1423.67,188.333,1423,188Zm-10,6c2.67,1,5.33,2,8,3C1418.33,196,1415.67,195,1413,194Zm-43,1c0.67,0.333,1.33.667,2,1C1371.33,195.667,1370.67,195.333,1370,195Zm131,0,4,1Zm-79,3c0.67,0.667,1.33,1.333,2,2C1422.61,198.077,1423.9,199.4,1422,198Zm12,11c0.67,0.667,1.33,1.333,2,2C1434.61,209.077,1435.9,210.4,1434,209Zm-137,4c1.94,3.946,3.49,3.816,9,4v-1Zm15,6c0.33,1,.67,2,1,3l4-1C1315.33,220.333,1313.67,219.667,1312,219Zm-33,1c-0.67,1.667-1.33,3.333-2,5,0.67,0.333,1.33.667,2,1l6-3v-1C1282.73,220.637,1283.02,220.548,1279,220Zm64,1-3,1c0.67,0.667,1.33,1.333,2,2h4v-1Zm-42,4c-0.67.333-1.33,0.667-2,1l4,1C1302.33,226.333,1301.67,225.667,1301,225Zm7,0c2.79,1.847.14,0.722,4,1Zm19,6c0.67,0.333,1.33.667,2,1C1328.33,231.667,1327.67,231.333,1327,231Zm-45,7c0.67,0.333,1.33.667,2,1C1283.33,238.667,1282.67,238.333,1282,238Zm-2,1c-0.67.333-1.33,0.667-2,1,0.33,0.667.67,1.333,1,2,1.33-.667,2.67-1.333,4-2Z" transform="translate(-795.688 -119)"/>
</svg>
